<svg width="42" height="29" viewBox="0 0 42 29" fill="none" xmlns="http://www.w3.org/2000/svg">
<g id="Frame" clip-path="url(#clip0_1_214)">
<path id="Vector" d="M38.973 14.1083V5.47987C38.973 2.45935 36.8465 0 34.2357 0H7.76432C5.14973 0 3.02703 2.45935 3.02703 5.47987V14.1083C1.2373 14.9821 0 16.8049 0 18.9178V27.8701C0 28.4953 0.507027 29 1.13514 29C1.76324 29 2.27027 28.4953 2.27027 27.8701V26.1075H39.7297V27.8701C39.7297 28.4953 40.2368 29 40.8649 29C41.493 29 42 28.4953 42 27.8701V18.9178C42 16.8049 40.7627 14.9783 38.973 14.1083ZM5.2973 5.47987C5.2973 3.70221 6.40216 2.25974 7.76432 2.25974H34.2395C35.5978 2.25974 36.7027 3.70221 36.7027 5.47987V13.5622C36.6724 13.5622 36.6459 13.5584 36.6157 13.5584H32.7297V11.261C32.7297 8.68493 30.6259 6.59091 28.0378 6.59091H24.1784C22.7557 6.59091 21.4843 7.2274 20.6216 8.22545C19.7589 7.2274 18.4876 6.59091 17.0649 6.59091H13.2054C10.6173 6.59091 8.51351 8.68493 8.51351 11.261V13.5584H5.38432C5.35405 13.5584 5.32757 13.5622 5.2973 13.5622V5.47987ZM19.4865 13.5584H10.7838V11.261C10.7838 9.93156 11.8697 8.85065 13.2054 8.85065H17.0649C18.4005 8.85065 19.4865 9.93156 19.4865 11.261V13.5584ZM30.4595 13.5584H21.7568V11.261C21.7568 9.93156 22.8427 8.85065 24.1784 8.85065H28.0378C29.3735 8.85065 30.4595 9.93156 30.4595 11.261V13.5584ZM2.27027 23.8478V18.9178C2.27027 17.2079 3.66649 15.8182 5.38432 15.8182H36.6157C38.3335 15.8182 39.7297 17.2079 39.7297 18.9178V23.8478H2.27027Z" fill="#455E45"/>
</g>
<defs>
<clipPath id="clip0_1_214">
<rect width="42" height="29" fill="white"/>
</clipPath>
</defs>
</svg>
