<svg width="226" height="242" viewBox="0 0 226 242" fill="none" xmlns="http://www.w3.org/2000/svg">
<g id="wxth1m.tif_1_">
<g id="Group">
<path id="Vector" d="M145.363 215.477C144.69 215.477 144.196 215.477 143.701 215.477C132.229 215.477 120.757 215.477 109.286 215.477C107.624 215.477 107.624 215.477 107.624 213.763C107.624 194.977 107.624 176.197 107.624 157.411C107.624 156.878 107.624 156.338 107.624 155.722C106.476 155.722 105.449 155.722 104.276 155.722C104.276 175.556 104.276 195.402 104.276 215.363C100.23 215.363 96.3234 215.363 92.2585 215.363C92.2585 195.644 92.2585 175.931 92.2585 156.122C89.0306 156.122 85.9613 156.122 82.7652 156.122C82.7652 175.88 82.7652 195.567 82.7652 215.363C78.3578 215.363 74.0836 215.363 69.6509 215.363C69.6509 195.504 69.6509 175.657 69.6509 155.722C68.4396 155.722 67.3806 155.722 66.1757 155.722C66.1757 175.607 66.1757 195.459 66.1757 215.433C55.5029 215.433 44.9759 215.433 34.3285 215.433C34.2968 215.947 34.2524 216.347 34.2524 216.748C34.2524 222.997 34.2841 229.24 34.227 235.489C34.2207 236.143 33.8655 236.969 33.3899 237.413C29.6294 240.957 25.1205 242.297 20.0093 241.827C15.1136 241.376 10.6808 239.623 6.46372 237.191C5.75981 236.785 5.51249 236.315 5.51249 235.489C5.53785 209.203 5.53151 182.916 5.54419 156.624C5.54419 156.135 5.65834 155.633 5.81054 155.17C7.77642 149.2 9.76132 143.236 11.7335 137.273C11.8223 137 11.8667 136.714 11.9365 136.409C11.0106 136.409 10.1355 136.46 9.27302 136.403C5.90566 136.174 3.33099 134.529 2.22122 131.386C0.0270497 125.162 -0.727594 118.728 0.80706 112.219C1.67585 108.535 4.10466 106.655 7.29446 106.966C8.55643 107.087 9.90084 107.417 11.0043 108.027C13.5219 109.424 15.9126 111.044 18.3414 112.593C18.7283 112.835 19.0707 113.146 19.5527 113.514C19.7302 113.044 19.8824 112.676 20.0093 112.295C24.0235 100.12 27.9933 87.9265 32.0645 75.7709C34.0051 69.9853 38.2792 66.5685 43.974 64.8538C44.9759 64.5553 46.1301 64.7649 47.2145 64.7649C53.2833 64.7458 59.3522 64.7331 65.4274 64.714C65.884 64.714 66.3406 64.714 66.6513 64.714C65.8523 68.1435 65.9918 71.4904 66.5499 75.0533C66.3977 75.0533 65.9728 75.0533 65.5416 75.0533C61.1849 75.0533 56.8346 75.0152 52.478 75.066C46.3267 75.1358 41.9193 77.9874 39.5159 83.6714C35.5841 93.0008 32.9587 102.756 30.4411 112.536C29.6167 115.743 28.8367 118.957 28.1074 122.189C26.1542 130.896 32.426 138.803 41.3422 138.816C59.5107 138.848 77.6793 138.822 95.8478 138.829C109.787 138.829 123.732 138.841 137.67 138.822C144.963 138.816 150.613 133.78 151.336 126.559C151.489 125.047 151.298 123.447 150.981 121.954C148.571 110.764 145.908 99.6438 141.957 88.8791C141.222 86.8786 140.416 84.8844 139.484 82.9665C136.979 77.8032 132.787 75.1422 127.074 75.066C120.795 74.9898 114.517 75.0469 108.233 75.0469C107.821 75.0469 107.415 75.0469 107.174 75.0469C107.89 71.592 107.745 68.2705 107.269 64.7776C107.218 64.7839 107.516 64.714 107.821 64.7077C117.574 64.7013 127.327 64.695 137.087 64.7267C137.67 64.7267 138.349 64.9236 138.824 65.2539C140.505 66.4288 142.173 67.6291 143.739 68.9437C146.124 70.9443 147.766 73.3766 148.698 76.4568C152.288 88.2821 156.073 100.044 159.783 111.831C159.916 112.263 160.081 112.682 160.265 113.209C161.337 112.422 162.244 111.609 163.29 111.025C165.694 109.678 168.053 108.16 170.615 107.239C174.661 105.779 177.8 107.621 179.03 111.787C180 115.07 179.905 118.43 179.525 121.77C179.258 124.095 178.859 126.419 178.332 128.699C177.058 134.224 173.678 136.612 168.034 136.117C167.913 136.104 167.793 136.136 167.526 136.161C167.634 136.587 167.71 136.974 167.824 137.349C169.682 143.262 171.553 149.174 173.405 155.093C173.551 155.563 173.64 156.071 173.64 156.56C173.652 180.503 173.652 204.44 173.646 228.382C173.646 230.523 173.589 232.657 173.659 234.797C173.69 235.819 173.335 236.524 172.574 237.172C167.393 241.573 161.534 242.9 154.983 241.09C151.888 240.233 149.066 238.791 146.422 236.975C145.654 236.448 145.331 235.883 145.337 234.917C145.382 228.967 145.363 223.01 145.363 217.059C145.363 216.582 145.363 216.093 145.363 215.477ZM159.872 150.387C159.872 147.548 159.872 144.735 159.872 141.909C113.997 141.909 68.2304 141.909 22.3937 141.909C22.3937 144.76 22.3937 147.536 22.3937 150.387C68.1987 150.387 113.928 150.387 159.872 150.387ZM52.8331 181.519C52.8648 173.682 46.5867 167.306 38.7929 167.255C30.904 167.204 24.4864 173.505 24.4357 181.354C24.3786 189.217 30.7328 195.663 38.5646 195.688C46.4472 195.714 52.8014 189.401 52.8331 181.519ZM124.239 180.459C124.118 188.277 130.447 194.735 138.33 194.831C146.092 194.926 152.49 188.658 152.649 180.814C152.808 172.996 146.529 166.538 138.622 166.379C130.834 166.22 124.359 172.565 124.239 180.459ZM56.6634 201.785C45.1471 201.785 33.7894 201.785 22.419 201.785C22.419 203.805 22.419 205.735 22.419 207.685C33.8846 207.685 45.2359 207.685 56.6634 207.685C56.6634 205.678 56.6634 203.773 56.6634 201.785ZM154.279 201.061C142.775 201.061 131.443 201.061 120.022 201.061C120.022 203.061 120.022 204.998 120.022 206.967C131.481 206.967 142.845 206.967 154.279 206.967C154.279 204.973 154.279 203.068 154.279 201.061Z" fill="black"/>
<path id="Vector_2" d="M225.983 151.785C225.983 178.617 225.976 205.443 226.008 232.275C226.008 233.412 225.697 234.257 224.917 235.064C222.476 237.585 219.812 239.789 216.496 241.065C212.386 242.646 208.436 242.259 204.986 239.535C203.109 238.048 201.568 236.118 200.001 234.276C199.608 233.819 199.602 232.942 199.595 232.263C199.443 212.226 199.316 192.189 199.171 172.145C198.993 146.57 198.79 121.002 198.644 95.4269C198.638 94.1885 198.308 93.5216 197.154 92.9246C157.431 72.2335 117.726 51.4915 78.0154 30.7623C75.5295 29.4667 73.0309 28.1902 70.5767 26.8438C70.1836 26.6279 69.7079 26.0881 69.7079 25.6943C69.6445 19.6356 70.0123 13.6149 71.9846 7.82295C72.5172 6.25428 73.2782 4.71737 74.1851 3.33288C74.8763 2.27864 75.9227 1.42762 76.9119 0.608357C77.8441 -0.160099 78.8271 -0.179151 80.0193 0.430532C116.274 18.81 152.554 37.1386 188.828 55.4799C194.839 58.522 200.857 61.5513 206.863 64.6188C207.586 64.9872 208.188 65.0634 208.968 64.7458C211.327 63.7995 213.794 63.3931 216.344 63.5709C220.098 63.8313 223.066 65.527 225.158 68.6326C225.634 69.3375 225.938 70.3155 225.945 71.1729C225.989 98.0371 225.983 124.914 225.983 151.785ZM209.26 78.7876C209.279 77.5111 208.67 76.7045 207.529 76.1329C199.817 72.278 192.125 68.3849 184.427 64.5045C164.99 54.7178 145.546 44.9311 126.11 35.1381C109.438 26.7422 92.7531 18.3781 76.1129 9.91874C73.6524 8.66761 72.0607 10.0966 71.6611 11.7986C71.2363 13.5832 71.9972 15.2344 73.6778 16.0791C76.7471 17.616 79.8227 19.1339 82.892 20.6644C123.579 40.9237 164.267 61.1893 204.96 81.4486C207.3 82.6108 209.273 81.3915 209.26 78.7876Z" fill="black"/>
<path id="Vector_3" d="M104.973 64.8347C103.952 66.251 103.876 73.3131 104.891 74.939C92.88 74.939 80.9452 74.939 68.9787 74.939C69.9362 73.148 69.8665 66.2637 68.8201 64.8347C80.8944 64.8347 92.8863 64.8347 104.973 64.8347Z" fill="black"/>
</g>
</g>
</svg>
