<svg width="70" height="70" viewBox="0 0 70 70" fill="none" xmlns="http://www.w3.org/2000/svg">
<g id="Group 20">
<circle id="Ellipse 1" cx="35" cy="35" r="35" transform="matrix(-1 0 0 1 70 0)" fill="black"/>
<path id="Arrow 1" d="M17.2889 36.4005C16.7031 35.8147 16.7031 34.865 17.2889 34.2792L26.8349 24.7332C27.4207 24.1475 28.3704 24.1475 28.9562 24.7332C29.542 25.319 29.542 26.2688 28.9562 26.8546L20.4709 35.3398L28.9562 43.8251C29.542 44.4109 29.542 45.3607 28.9562 45.9464C28.3704 46.5322 27.4207 46.5322 26.8349 45.9464L17.2889 36.4005ZM50.9709 36.8398L18.3496 36.8398L18.3496 33.8398L50.9709 33.8398L50.9709 36.8398Z" fill="white"/>
</g>
</svg>
