<svg width="34" height="33" viewBox="0 0 34 33" fill="none" xmlns="http://www.w3.org/2000/svg">
<g id="Frame" clip-path="url(#clip0_1_238)">
<g id="Ei4Tkq.tif_1_">
<g id="Group">
<path id="Vector" d="M28.8839 33C28.5863 33 28.311 32.9963 28.0462 32.9881C26.5714 32.9446 25.439 31.7899 25.4114 30.3026C25.4084 30.1453 25.4069 29.9896 25.4069 29.833H8.58852C8.58852 29.9214 8.58852 30.009 8.58852 30.0974C8.58554 31.8513 7.45089 32.9881 5.69781 32.9941C5.58815 32.9941 5.47849 32.9948 5.36883 32.9956C4.99061 32.9986 4.60046 33.0008 4.20509 32.9873C2.74518 32.9379 1.62097 31.7951 1.58964 30.3288C1.58368 30.0659 1.58591 29.8068 1.58741 29.556C1.5889 29.3058 1.59039 29.0662 1.58517 28.8311C0.538543 27.9474 0.00739746 26.8241 0.00515949 25.4873C0.0044135 25.1383 0.00366751 24.7894 0.00292152 24.4411C-6.24445e-05 23.2122 -0.0037924 21.9421 0.00888944 20.69C0.0245552 19.1144 0.760102 17.8345 2.13944 16.9801C2.7698 15.1176 3.39867 13.2215 4.00665 11.386L4.10065 11.1029C5.00106 8.38672 7.15175 6.8283 9.99994 6.82681C14.6654 6.82531 19.3308 6.82531 23.9962 6.82681C26.8444 6.82756 28.9951 8.38597 29.8962 11.1014L30.1656 11.9132C30.7168 13.5749 31.286 15.2921 31.8582 16.9778C33.2249 17.8308 33.9589 19.0844 33.9828 20.6084C34.0096 22.3286 33.9999 24.009 33.9865 25.5697C33.9753 26.8473 33.4322 27.9713 32.4125 28.8348C32.4065 29.0879 32.408 29.3463 32.4095 29.6166C32.411 29.8203 32.4125 30.0308 32.4102 30.2419C32.3938 31.8048 31.2547 32.9604 29.7015 32.9903C29.4069 32.9971 29.1368 33 28.8839 33ZM6.35055 27.5864H27.6471V28.7097C27.6471 28.8865 27.6463 29.0587 27.6456 29.228C27.6441 29.5867 27.6426 29.9259 27.6486 30.2607C27.6538 30.5542 27.8276 30.7339 28.1118 30.7422C28.5647 30.7557 29.0555 30.7564 29.6575 30.7452C30.0044 30.7384 30.1678 30.5714 30.1715 30.2187C30.1738 30.0263 30.1723 29.8345 30.1708 29.6324C30.1685 29.2647 30.1656 28.8842 30.1842 28.4956C30.2073 28.0095 30.4684 27.507 30.8489 27.2142C31.4561 26.7477 31.7418 26.219 31.7478 25.5495C31.7612 24.0038 31.7709 22.339 31.7448 20.6436C31.7329 19.8647 31.3867 19.3128 30.6236 18.8538C30.2349 18.6201 29.9209 18.2382 29.7829 17.8315C29.1935 16.0972 28.6079 14.3306 28.041 12.6224L27.7717 11.8106C27.1689 9.99456 25.8977 9.07269 23.994 9.07269C19.3293 9.07119 14.6639 9.07119 9.99919 9.07269C8.09542 9.07344 6.825 9.99456 6.22299 11.8113L6.12899 12.0944C5.50535 13.9756 4.86081 15.9204 4.21329 17.8308C4.0723 18.2472 3.7657 18.6254 3.3927 18.8433C2.60717 19.3016 2.25357 19.8775 2.24537 20.711C2.23343 21.9496 2.23642 23.2122 2.2394 24.4336C2.24015 24.7834 2.24089 25.1323 2.24164 25.4821C2.24313 26.1973 2.52213 26.7305 3.14727 27.2105C3.52847 27.5033 3.78882 28.008 3.81046 28.4971C3.82687 28.8633 3.82463 29.2212 3.82239 29.5679C3.8209 29.8143 3.81941 30.048 3.82463 30.2794C3.8306 30.5505 4.00814 30.7317 4.27819 30.7407C4.62806 30.7527 4.97942 30.7504 5.35093 30.7474C5.46357 30.7467 5.57547 30.7459 5.68811 30.7452C6.21777 30.7437 6.34682 30.6149 6.34832 30.0914C6.34906 29.7806 6.34906 29.4706 6.34832 29.1553L6.35055 27.5864ZM31.7739 16.9269C31.7747 16.9269 31.7754 16.9277 31.7754 16.9277C31.7747 16.9277 31.7747 16.9269 31.7739 16.9269ZM28.822 18.6284H5.15846L5.4397 17.2759C5.44492 17.2519 5.44865 17.2287 5.45238 17.207C5.46805 17.1194 5.48893 16.9988 5.53444 16.8633C6.02903 15.3722 6.59002 13.6813 7.14802 12.015C7.58442 10.7127 8.53705 10.0245 9.90445 10.0245C14.631 10.023 19.3576 10.023 24.0842 10.0245C25.43 10.0245 26.3968 10.6903 26.8071 11.8989C27.2263 13.1346 27.6411 14.3927 28.0417 15.6096C28.1946 16.0739 28.3476 16.539 28.5012 17.0033C28.5356 17.1081 28.5497 17.1935 28.5594 17.2497C28.5617 17.2624 28.5639 17.2766 28.5676 17.2954L28.822 18.6284ZM8.0529 16.3817H25.9395C25.9321 16.3593 25.9246 16.336 25.9171 16.3136C25.518 15.1019 25.1055 13.849 24.6892 12.6224C24.6251 12.4336 24.5699 12.2696 24.0842 12.2696C19.3576 12.2681 14.6318 12.2681 9.9052 12.2696C9.50012 12.2696 9.39942 12.343 9.26961 12.7302C8.85633 13.9636 8.44156 15.2112 8.0529 16.3817Z" fill="#455E45"/>
<path id="Vector_2" d="M1.12256 9.0607C1.12256 8.10439 1.12256 7.18552 1.12256 6.26664C1.12256 5.67578 1.1233 5.67653 1.68504 5.47209C6.56232 3.69276 11.4403 1.91492 16.3147 0.128852C16.7697 -0.0381473 17.2046 -0.0411428 17.6574 0.11013C22.6265 1.77563 27.5963 3.43664 32.5631 5.10888C32.6847 5.15007 32.857 5.29835 32.8592 5.40019C32.8809 6.43215 32.8727 7.46485 32.8727 8.55147C32.7085 8.50579 32.5825 8.47583 32.4609 8.43539C27.4568 6.75791 22.4519 5.08117 17.45 3.39695C17.1651 3.30109 16.9174 3.2996 16.6295 3.40519C11.5933 5.25117 6.55337 7.08741 1.5142 8.92591C1.40007 8.96709 1.28444 9.00529 1.12256 9.0607Z" fill="#455E45"/>
</g>
</g>
<path id="Vector_3" d="M24.9482 23.1028C24.9468 24.432 26.0083 25.4999 27.3287 25.4977C28.6245 25.4955 29.6905 24.4328 29.7084 23.1268C29.7256 21.817 28.6454 20.7199 27.3339 20.7146C26.0113 20.7094 24.9497 21.772 24.9482 23.1028Z" fill="#455E45"/>
<path id="Vector_4" d="M9.05022 23.1178C9.05619 21.7862 8.00061 20.7168 6.67872 20.7146C5.36652 20.7124 4.28484 21.7975 4.29006 23.1118C4.29453 24.4126 5.36055 25.4879 6.65485 25.4969C7.97674 25.5067 9.04351 24.447 9.05022 23.1178Z" fill="#455E45"/>
</g>
<defs>
<clipPath id="clip0_1_238">
<rect width="34" height="33" fill="white"/>
</clipPath>
</defs>
</svg>
