<svg width="324" height="244" viewBox="0 0 324 244" fill="none" xmlns="http://www.w3.org/2000/svg">
<g clip-path="url(#clip0_1_604)">
<path d="M324 227.082C322.5 229.378 320.488 230.31 317.653 230.303C286.341 230.227 255.036 230.259 223.725 230.253C219.402 230.253 216.738 227.913 217.776 224.596C218.327 222.853 220.162 221.515 221.706 219.644C194.337 180.869 166.487 141.416 138.358 101.569C113.647 146.007 89.1759 190.013 64.5785 234.26C62.4586 233.081 60.5602 232.028 58.4023 230.83C59.6742 228.407 60.8766 226.131 62.2498 223.512C52.3463 223.512 42.7465 223.512 32.9442 223.512C32.1785 225.522 31.3685 227.691 30.5269 229.84C28.812 234.254 25.5087 236.131 21.7371 234.831C17.782 233.474 16.2886 229.923 17.7188 225.294C17.9023 224.704 18.0478 224.108 18.2187 223.499C12.6626 222.789 12.6689 222.796 10.2009 227.228C9.02391 229.346 7.82789 231.457 6.62555 233.563C6.53063 233.727 6.30281 233.823 5.96109 234.083C4.03102 233.043 2.01234 231.965 0 230.887C0 230.677 0 230.462 0 230.253C0.582188 229.403 1.24664 228.591 1.74656 227.691C32.052 173.203 62.3384 118.709 92.6311 64.2083C93.0867 63.3903 93.4981 62.5406 94.1941 61.1963C89.9227 61.1963 86.0182 61.1963 81.9239 61.1963C81.9239 58.2858 81.9239 55.8192 81.9239 52.9467C85.6828 52.9467 89.3152 52.9467 93.3209 52.9467C93.3209 44.8684 93.2386 37.1831 93.3588 29.5042C93.4095 26.3591 93.5423 23.1252 94.2764 20.0879C97.4721 6.89237 109.856 -1.28746 124.063 0.158275C137.611 1.53426 147.819 12.3646 148.135 25.9279C148.312 33.6385 148.186 41.3555 148.198 49.0661C148.198 50.2011 148.198 51.3425 148.198 52.7121C160.5 52.7121 172.473 52.7121 184.826 52.7121C184.876 51.7483 184.971 50.7401 184.971 49.7319C184.984 42.5476 184.996 35.3633 184.965 28.1726C184.933 19.5299 180.845 13.3221 173.694 10.9633C165.759 8.35079 157.735 10.9823 152.729 17.8432C152.495 18.1603 152.229 18.4583 151.888 18.8704C150.331 15.5097 148.856 12.3139 147.205 8.75027C151.685 3.6141 157.615 0.805053 164.563 0.177298C181.946 -1.4016 194.894 10.4116 194.989 27.8556C195.026 35.1477 194.976 42.4398 195.014 49.7319C195.02 51.0698 194.356 52.8516 196.697 53.1306C196.95 53.1623 197.362 53.7837 197.317 54.0691C196.425 59.4716 200.924 62.2362 203.272 65.9774C204.658 68.1904 205.208 69.541 203.38 71.8999C199.589 76.7887 199.14 82.5336 200.88 89.3882C198.842 87.9044 197.475 86.9153 196.115 85.9134C192.128 82.9712 188.173 79.9782 184.148 77.0804C179.535 73.7641 174.334 74.3602 171.233 78.4754C168.088 82.6414 169.005 88.082 173.599 91.5188C183.06 98.5953 192.615 105.539 202.032 112.672C203.348 113.668 204.474 115.278 205.031 116.838C207.885 124.777 210.423 132.824 213.289 140.763C214.353 143.711 215.852 146.539 217.409 149.272C219.985 153.806 224.022 156.082 229.192 156.774C235.976 157.68 242.741 158.809 249.461 160.084C250.929 160.363 252.536 161.396 253.511 162.557C256.498 166.101 259.206 169.887 262.035 173.571C267.851 181.155 272.951 182.055 281.184 176.779C281.791 177.559 282.443 178.339 283.025 179.163C292.163 192.086 301.345 204.99 310.382 217.983C311.806 220.031 313.286 220.995 315.773 220.735C318.994 220.392 322.152 220.5 323.994 223.893C324 224.964 324 226.023 324 227.082ZM121.139 61.0949C121.987 62.4455 122.481 63.3205 123.057 64.1322C133.941 79.5661 144.832 95 155.723 110.428C181.162 146.457 206.594 182.486 232.065 218.496C232.685 219.371 233.628 220.494 234.52 220.595C237.058 220.881 239.646 220.697 242.703 220.697C241.798 219.302 241.272 218.427 240.678 217.59C222.003 191.123 203.323 164.662 184.642 138.195C167.119 113.37 149.603 88.5322 132.043 63.7327C131.309 62.6928 130.233 61.3739 129.157 61.209C126.733 60.8349 124.202 61.0949 121.139 61.0949ZM124.057 112.52C123.341 112.374 123.05 112.266 122.759 112.26C110.331 112.247 97.9024 112.235 85.474 112.266C84.6766 112.266 83.6641 112.368 83.1136 112.843C77.5765 117.682 70.0207 120.269 66.7491 127.637C66.382 128.468 65.4771 129.038 64.9392 129.812C63.4711 131.923 62.0599 134.086 60.5412 136.362C63.2812 137.072 65.5277 137.656 68.5905 138.448C64.5785 140.458 60.2374 137.275 57.8201 141.568C58.2504 141.822 58.3327 141.917 58.4149 141.917C74.3175 141.967 90.2138 142.025 106.116 141.993C106.863 141.993 107.945 141.359 108.312 140.706C113.552 131.454 118.703 122.146 124.057 112.52ZM103.591 52.7502C115.147 52.7502 126.48 52.7502 137.921 52.7502C138.023 52.1731 138.156 51.7737 138.156 51.3742C138.149 42.8139 138.345 34.2473 138.061 25.6996C137.776 17.1774 130.954 10.5828 122.607 10.1897C112.293 9.70776 104.465 15.0468 103.75 24.2983C103.028 33.6195 103.591 43.0422 103.591 52.7502ZM78.4245 104.537C79.0193 104.809 79.2028 104.968 79.3863 104.968C95.0737 105 110.768 105.031 126.455 105.012C128.474 105.012 134.011 96.2935 133.27 94.4103C133.118 94.0298 132.815 93.7064 132.574 93.3577C128.682 87.8474 124.848 82.299 120.842 76.8712C120.222 76.0278 118.83 75.324 117.779 75.2986C110.723 75.1655 103.667 75.1718 96.6178 75.2986C95.6876 75.3176 94.3587 76.0215 93.9094 76.8078C88.695 85.9641 83.6198 95.1839 78.4245 104.537ZM37.5701 178.72C37.8802 178.796 38.1712 178.929 38.4623 178.929C54.0612 178.948 69.66 178.992 85.2652 178.865C86.284 178.859 87.6825 177.775 88.2394 176.811C93.0108 168.485 97.643 160.077 102.288 151.682C102.668 150.997 102.889 150.23 103.319 149.158C99.3516 149.158 95.7762 149.38 92.2324 149.101C88.0495 148.765 84.8159 149.684 82.2277 153.356C80.1457 156.311 78.1017 156.279 75.1718 154.199C72.8051 152.519 70.4763 150.788 67.6793 148.746C66.9136 155.537 66.2302 161.656 65.5214 167.946C67.9451 167.743 69.8182 167.458 71.6977 167.452C74.7668 167.452 76.8677 169.05 77.9625 171.89C79.2534 175.245 78.532 176.291 74.9819 176.297C63.7052 176.304 52.4222 176.316 41.1455 176.285C39.3546 176.272 37.7156 176.278 37.5701 178.72ZM82.9554 186.443C81.8227 186.335 81.2025 186.24 80.5823 186.221C75.1275 186.081 75.2098 186.113 73.5391 191.268C71.723 196.867 69.6727 202.384 67.8312 207.977C66.3314 212.53 63.2812 213.887 58.6997 213.278C55.6116 212.866 54.3713 212.041 54.4662 208.852C54.5041 207.508 54.8965 206.151 55.2825 204.844C57.0734 198.789 58.9148 192.752 60.8829 186.215C56.7633 186.215 52.998 186.329 49.2455 186.17C47.2205 186.088 46.2586 186.811 45.5941 188.707C42.9616 196.164 40.2089 203.583 37.4119 210.976C37.0955 211.819 36.2475 213.062 35.5957 213.088C31.2546 213.278 26.8945 213.183 22.1991 213.183C24.5721 206.645 26.749 200.64 28.9322 194.635C28.774 194.566 28.6095 194.49 28.4513 194.42C24.5595 201.414 20.674 208.414 16.6999 215.561C17.472 215.802 17.7567 215.973 18.0415 215.973C33.6466 215.998 49.2518 216.023 64.8569 215.96C65.6353 215.96 66.7617 215.402 67.1288 214.762C72.3811 205.517 77.5259 196.208 82.9554 186.443ZM99.4085 67.7846C104.262 67.7846 109.116 67.7846 114.299 67.7846C111.951 63.8278 110.185 60.0993 104.585 60.9681C100.44 61.6148 101.218 65.4765 99.4085 67.7846Z" fill="black"/>
<path d="M254.865 141.892C260.586 141.809 264.047 144.999 267.047 149.33C270.35 154.098 274.071 158.568 277.577 163.204C280.735 167.382 280.463 171.732 276.925 174.376C273.495 176.951 269.382 176.05 266.25 171.992C262.896 167.649 259.706 163.166 256.175 158.974C255.023 157.604 253.106 156.431 251.359 156.089C243.918 154.643 236.419 153.489 228.92 152.335C225.693 151.841 223.085 150.458 221.484 147.586C219.953 144.834 218.314 142.082 217.257 139.14C214.264 130.801 211.613 122.349 208.657 113.998C208.138 112.527 207.025 111.037 205.778 110.098C196.007 102.73 186.129 95.5075 176.308 88.2091C173.536 86.1482 172.935 83.3963 174.631 81.1199C176.327 78.8435 178.972 78.704 181.889 80.7458C182.408 81.1072 182.902 81.5003 183.414 81.8808C192.489 88.5895 201.608 95.2475 210.606 102.058C212.429 103.434 213.929 103.415 216.08 102.926C226.477 100.58 234.995 95.5646 241.988 87.3277C247.506 80.8282 253.922 75.0896 260.01 69.0847C262.345 66.783 265.06 66.802 266.996 68.8628C268.825 70.8158 268.686 73.3205 266.585 75.6476C266.091 76.1993 265.547 76.7002 265.028 77.2265C257.283 85.0069 249.588 92.8443 241.734 100.517C239.963 102.248 239.577 103.668 240.431 106.008C243.095 113.326 245.506 120.738 248.145 128.512C251.783 127.149 255.112 125.557 258.624 124.701C260.921 124.137 263.737 123.953 265.876 124.765C275.425 128.379 284.829 132.374 294.258 136.312C298.922 138.265 300.706 142.158 298.966 146.184C297.321 149.983 293.264 151.378 288.797 149.571C281.475 146.616 273.989 143.965 266.933 140.459C262.301 138.157 258.763 139.596 254.865 141.892Z" fill="black"/>
<path d="M233.501 82.686C233.514 90.7834 226.939 97.416 218.871 97.4541C210.79 97.4921 204.215 90.9039 204.209 82.7621C204.202 74.614 210.714 68.0194 218.795 67.9813C226.813 67.9496 233.489 74.6203 233.501 82.686ZM215.39 88.786C221.041 93.231 227.496 91.0751 228.471 84.5122C224.231 85.9009 219.782 87.3529 215.39 88.786Z" fill="black"/>
<path d="M64.5151 109.077C54.7698 126.597 45.1005 143.984 35.4374 161.365C35.2412 161.308 35.0514 161.244 34.8552 161.187C35.526 155.189 36.5069 149.203 36.7726 143.179C37.0005 138.024 38.9875 134.371 43.4678 131.955C44.2715 131.524 44.9296 130.814 45.8345 130.078C42.7527 126.515 40.4493 122.533 41.6263 117.936C42.4237 114.816 43.9424 111.474 46.1383 109.204C51.0109 104.169 58.5098 104.315 64.5151 109.077Z" fill="black"/>
<path d="M125.417 244C125.639 243.575 125.664 243.461 125.74 243.398C132.846 237.741 134.593 230.246 133.656 221.572C133.321 218.49 134.061 215.294 134.371 211.395C130.904 213.189 127.815 214.603 124.917 216.334C122.278 217.907 119.956 217.926 117.235 216.423C112.628 213.88 107.831 211.693 103.136 209.315C100.162 207.806 99.225 205.827 100.313 203.557C101.383 201.332 103.642 200.812 106.547 202.226C110.616 204.21 114.704 206.17 118.684 208.326C120.38 209.245 121.658 209.118 123.322 208.237C128.714 205.371 134.144 202.562 139.681 199.987C151.128 194.667 162.316 196.918 172.131 203.405C177.447 206.918 181.041 213.151 185.028 218.452C185.711 219.359 184.965 222.244 183.946 223.335C182.414 224.983 180.206 224.419 178.687 222.663C175.991 219.549 173.144 216.537 170.796 213.177C167.822 208.922 163.5 207.432 158.159 205.935C159.836 221.75 169.644 232.529 178.89 243.987C160.956 244 143.345 244 125.417 244Z" fill="black"/>
<path d="M150.66 181.605C150.685 189.905 144.129 196.557 135.915 196.563C127.796 196.57 121.013 189.753 121.051 181.624C121.089 173.609 127.752 166.907 135.738 166.837C143.965 166.761 150.635 173.362 150.66 181.605ZM141.541 187.229C136.51 187.229 131.752 187.229 127.164 187.229C131.65 193.31 137.08 193.494 141.541 187.229Z" fill="black"/>
<path d="M149.844 171.282C153.318 172.937 156.425 174.269 159.38 175.886C161.772 177.192 163.886 178.999 166.278 180.299C169.771 182.195 173.277 182.689 176.251 179.005C176.491 179.164 176.732 179.329 176.972 179.487C176.346 180.977 175.966 182.651 175.036 183.913C172.479 187.375 167.018 189.138 162.791 187.508C159.494 186.24 156.476 184.218 153.381 182.448C152.919 182.182 152.558 181.51 152.4 180.958C151.597 178.067 150.862 175.156 149.844 171.282Z" fill="black"/>
<path d="M84.4235 139.063C87.3091 135.741 89.4037 135.779 91.6439 139.063C89.2835 139.063 87.0686 139.063 84.4235 139.063Z" fill="black"/>
<path d="M91.2326 102.058C88.7583 102.058 86.6384 102.058 84.3286 102.058C87.1003 99.2614 88.7899 99.236 91.2326 102.058Z" fill="black"/>
</g>
<defs>
<clipPath id="clip0_1_604">
<rect width="324" height="244" fill="white"/>
</clipPath>
</defs>
</svg>
