<svg width="37" height="37" viewBox="0 0 37 37" fill="none" xmlns="http://www.w3.org/2000/svg">
<g id="Frame" clip-path="url(#clip0_1_216)">
<g id="Group">
<path id="Vector" d="M32.879 31.7885C32.2003 31.7885 31.648 31.2434 31.648 30.5737V26.9532C32.8932 26.7955 34.0457 26.2433 34.9563 25.3574C36.0666 24.2764 36.6789 22.8341 36.6789 21.2947V3.23586C36.6789 1.71893 35.4287 0.485107 33.8916 0.485107H30.2601C28.7237 0.485107 27.4735 1.71893 27.4735 3.23586V14.9164C27.1552 14.784 26.8056 14.7107 26.4388 14.7107H2.67599C1.20027 14.7107 0 15.8953 0 17.3516C0 18.5333 0.789952 19.5355 1.87605 19.8721C2.215 25.6525 6.79059 30.33 12.5771 30.9167C12.3823 31.4251 11.885 31.7885 11.3027 31.7885H7.84957C5.39051 31.7885 3.38959 33.7632 3.38959 36.19V36.9999H37V35.8555C37 33.6132 35.1511 31.7885 32.879 31.7885ZM2.67599 16.3305H26.4388C27.0096 16.3305 27.4735 16.7882 27.4735 17.3516C27.4735 17.915 27.0096 18.3728 26.4388 18.3728H2.67599C2.10511 18.3728 1.64127 17.915 1.64127 17.3516C1.64127 16.7882 2.10511 16.3305 2.67599 16.3305ZM3.52874 19.9925H25.3712C24.9516 25.2264 20.5016 29.3589 15.0919 29.3589H13.8074C8.39832 29.3589 3.94833 25.2271 3.52874 19.9925ZM5.15288 35.3801C5.5054 34.24 6.58079 33.4083 7.84957 33.4083H11.3027C12.7741 33.4083 14.0008 32.359 14.2577 30.9786H15.0926C21.4293 30.9786 26.6293 26.087 27.0211 19.9291C28.2178 19.6665 29.1148 18.6108 29.1148 17.3516C29.1148 17.3277 29.1133 17.3044 29.1126 17.2812H29.1148V3.23586C29.1148 2.61261 29.6285 2.10486 30.2608 2.10486H33.8923C34.5238 2.10486 35.0383 2.61191 35.0383 3.23586V21.2954C35.0383 22.3975 34.6002 23.4306 33.8052 24.2046C33.0096 24.9785 31.9584 25.3954 30.8402 25.3806L30.0082 25.3687V30.5744C30.0082 32.1371 31.2962 33.409 32.8804 33.409C34.0828 33.409 35.0883 34.2583 35.3131 35.3808H5.15288V35.3801Z" fill="#455E45"/>
<path id="Vector_2" d="M11.3106 20.9785H5.81592V22.5983H11.3106V20.9785Z" fill="#455E45"/>
</g>
<g id="Group_2">
<path id="Vector_3" d="M8.91961 8.35428C10.6434 8.35428 12.0409 6.97517 12.0409 5.27394C12.0409 3.57272 10.6434 2.1936 8.91961 2.1936C7.19578 2.1936 5.79834 3.57272 5.79834 5.27394C5.79834 6.97517 7.19578 8.35428 8.91961 8.35428Z" fill="white"/>
<path id="Vector_4" d="M8.91981 10.5488L8.15698 8.65369C7.67601 7.4593 6.70623 6.50153 5.49597 6.02758L3.57568 5.27404L5.49597 4.52121C6.70623 4.04656 7.67672 3.0895 8.15698 1.89511L8.91981 0L9.68265 1.89511C10.1636 3.0895 11.1334 4.04726 12.3436 4.52121L14.2639 5.27404L12.3436 6.02688C11.1334 6.50153 10.1629 7.45859 9.68265 8.65298L8.91981 10.5488ZM7.48762 5.27404C8.03709 5.66701 8.52162 6.14519 8.91981 6.68745C9.318 6.14519 9.80253 5.66701 10.352 5.27404C9.80253 4.88108 9.318 4.4029 8.91981 3.86064C8.52162 4.4029 8.03709 4.88108 7.48762 5.27404Z" fill="#455E45"/>
</g>
<g id="Group_3">
<path id="Vector_5" d="M20.1232 16.9643C22.4091 16.9643 24.2621 15.1356 24.2621 12.8798C24.2621 10.6239 22.4091 8.79517 20.1232 8.79517C17.8374 8.79517 15.9844 10.6239 15.9844 12.8798C15.9844 15.1356 17.8374 16.9643 20.1232 16.9643Z" fill="white"/>
<path id="Vector_6" d="M20.1234 19.1588L19.3606 17.2637C18.6962 15.6123 17.3554 14.289 15.6813 13.6327L13.7603 12.8799L15.6813 12.127C17.3546 11.4714 18.6955 10.1481 19.3606 8.49596L20.1234 6.60156L20.8862 8.49667C21.5506 10.1481 22.8914 11.4714 24.5655 12.1277L26.4865 12.8806L24.5655 13.6334C22.8922 14.289 21.5513 15.6123 20.8862 17.2644L20.1234 19.1588ZM17.7535 12.8799C18.6962 13.4904 19.5047 14.289 20.1234 15.2186C20.7421 14.2883 21.5513 13.4904 22.4933 12.8799C21.5506 12.2693 20.7421 11.4707 20.1234 10.5411C19.5047 11.4714 18.6955 12.2693 17.7535 12.8799Z" fill="#455E45"/>
</g>
</g>
<defs>
<clipPath id="clip0_1_216">
<rect width="37" height="37" fill="white"/>
</clipPath>
</defs>
</svg>
