<svg width="38" height="25" viewBox="0 0 38 25" fill="none" xmlns="http://www.w3.org/2000/svg">
<g id="Group">
<path id="Vector" d="M0 21.3544C0 15.4515 0 9.54881 0 3.6459C0.00838745 3.60216 0.0211039 3.55897 0.0243506 3.51497C0.16829 1.5584 1.84632 0 3.81034 0C13.77 0 23.7297 0 33.6897 0C35.49 0 37.0879 1.32301 37.4169 3.08738C37.4513 3.27229 37.4727 3.45963 37.5 3.64563C37.5 9.54854 37.5 15.4512 37.5 21.3541C37.4916 21.3978 37.4789 21.441 37.4756 21.485C37.3314 23.4424 35.655 24.9997 33.6902 24.9997C23.7346 24.9997 13.7789 24.9997 3.82332 24.9997C2.05032 24.9997 0.482955 23.7439 0.106331 22.0176C0.0587121 21.7992 0.0349026 21.5755 0 21.3544ZM2.07143 1.46392C2.22267 1.60564 2.36688 1.73387 2.50325 1.86992C6.45725 5.81356 10.4061 9.76234 14.3663 13.6998C15.6383 14.9645 17.1918 15.5675 18.9884 15.5041C20.5893 15.4477 21.9748 14.8524 23.108 13.7254C27.0839 9.77206 31.0492 5.80763 35.0184 1.84697C35.1477 1.71794 35.2733 1.58485 35.4064 1.44772C35.3615 1.41479 35.3301 1.38995 35.2968 1.36755C34.7995 1.03551 34.2514 0.867068 33.6534 0.867068C23.7205 0.866528 13.7879 0.866258 3.85498 0.868957C3.66234 0.868957 3.46726 0.889203 3.2776 0.924026C2.84713 1.00339 2.45427 1.17481 2.07143 1.46392ZM35.391 23.5674C31.9037 20.0881 28.4261 16.6184 24.9426 13.1429C24.9245 13.1596 24.8942 13.1855 24.8658 13.2136C24.4884 13.5877 24.1101 13.9611 23.7338 14.3363C21.1028 16.9618 16.8082 17.0806 14.0446 14.5938C13.5663 14.1635 13.1247 13.6925 12.668 13.2384C12.6301 13.2009 12.6071 13.1485 12.5904 13.1232C9.08171 16.6238 5.60173 20.0959 2.11769 23.5723C2.148 23.5936 2.19048 23.626 2.23539 23.6551C2.72484 23.972 3.2619 24.1329 3.84524 24.1332C11.5157 24.1337 19.1859 24.1337 26.8563 24.1337C29.1291 24.1337 31.4018 24.1359 33.6745 24.1324C34.3065 24.131 34.8785 23.9367 35.391 23.5674ZM1.4421 22.8982C4.93101 19.4172 8.41044 15.9457 11.8766 12.4874C8.41477 9.03348 4.9375 5.56413 1.45373 2.0883C1.42911 2.12205 1.39583 2.16362 1.36688 2.20789C1.04681 2.7 0.88447 3.23855 0.88447 3.82622C0.885011 9.60685 0.88447 15.3878 0.886093 21.1684C0.886093 21.3252 0.896916 21.4837 0.920455 21.6386C0.992695 22.1086 1.17181 22.5351 1.4421 22.8982ZM36.0587 2.10612C32.5698 5.5779 29.0852 9.04509 25.6085 12.5047C29.0809 15.9692 32.5582 19.4386 36.0422 22.9147C36.0625 22.8877 36.0906 22.8539 36.115 22.8175C36.4453 22.3208 36.6155 21.7755 36.6153 21.1778C36.615 15.3932 36.6172 9.60847 36.609 3.82379C36.6085 3.51848 36.5409 3.20804 36.4659 2.90975C36.3891 2.60444 36.2332 2.32829 36.0587 2.10612Z" fill="black"/>
</g>
</svg>
