<svg width="266" height="252" viewBox="0 0 266 252" fill="none" xmlns="http://www.w3.org/2000/svg">
<g clip-path="url(#clip0_1_784)">
<path d="M244.043 0L208.223 35.8029C195.413 35.8029 183.141 35.8029 170.433 35.8029C170.433 42.9998 170.433 49.8771 170.433 57.2919C158.714 49.042 147.51 41.2786 136.473 33.2756C133.937 31.4383 132.332 31.2495 129.658 33.1957C101.953 53.3775 74.1109 73.3778 46.3121 93.4433C39.1044 98.6431 31.9186 103.879 24.5002 109.261C29.1576 115.528 33.5897 121.497 38.1017 127.561C39.4532 126.632 40.5648 125.906 41.6329 125.136C71.1029 103.879 100.587 82.6516 129.992 61.3152C132.201 59.7175 133.61 59.5577 135.906 61.228C144.959 67.8003 154.027 74.3582 163.088 80.9087L158.198 85.7962C150.729 80.3277 143.267 74.8593 135.812 69.3763C133.683 67.8076 132.361 67.7495 130.195 69.3472C106.567 86.7403 82.8298 103.988 59.2161 121.41C57.9446 122.347 57 124.489 56.9056 126.131C56.6149 131.425 56.7966 136.741 56.7966 142.05C56.7966 147.482 56.782 152.907 56.8038 158.339C56.8184 162.181 59.6884 164.134 63.2922 162.587C64.6799 161.992 65.8933 160.881 67.0413 159.842C75.2516 152.427 85.4383 148.571 95.6975 148.252L77.969 165.971C76.7993 166.807 75.6585 167.714 74.5687 168.709C65.7916 176.734 56.5495 176.727 47.8524 168.724C41.4513 162.834 33.9384 159.748 24.987 159.886C16.8058 159.784 9.59811 162.762 3.36407 168.194C-0.544916 171.6 -1.10438 176.342 1.89638 179.661C4.76636 182.834 9.33654 182.776 13.1874 179.523C21.0708 172.849 30.3056 173.045 38.0218 180.053C43.2532 184.802 49.0077 187.787 54.9002 189.029L48.5499 195.376C47.5981 194.672 46.6608 193.887 45.7453 193.023C33.9675 181.861 14.3063 183.248 2.87726 194.425C-0.566714 197.787 -0.966331 202.188 1.87459 205.369C4.78816 208.637 8.95872 208.717 12.8604 205.572C21.5285 198.586 29.8042 198.666 38.0799 205.841L3.76369 240.163L15.6069 252L255.886 11.8375L244.043 0Z" fill="black"/>
<path d="M217.973 194.592C209.247 202.435 200.317 202.283 191.46 194.686C188.133 191.832 184.282 189.167 180.206 187.678C167.505 183.023 155.967 185.674 146.035 194.803C140.84 199.574 134.882 201.905 128.132 199.574C124.63 198.361 121.426 195.848 118.527 193.401C111.937 187.824 103.443 185.006 95.2543 185.34L65.5881 214.992C72.4616 214.178 78.1434 211.404 84.065 206.074C92.3988 198.564 101.823 198.528 110.033 205.965C123.889 218.521 141.959 218.528 155.844 206.139C157.958 204.251 160.45 202.45 163.095 201.556C170.564 199.029 176.856 201.353 182.618 206.633C195.369 218.303 214.13 218.245 226.75 206.851C235.963 198.535 243.476 198.39 253.597 205.812C255.385 207.127 258.436 207.867 260.551 207.373C266.487 205.979 267.744 199.065 263.203 194.541C251.076 182.442 231.466 182.464 217.973 194.592Z" fill="black"/>
<path d="M184.354 96.29C196.968 105.39 209.581 114.489 222.195 123.589C224.011 124.903 225.871 126.167 227.906 127.59C232.527 120.865 236.937 114.446 241.478 107.83C231.48 100.647 221.86 93.5812 212.044 86.7983C209.334 84.9246 208.426 82.913 208.47 79.7031C208.499 77.1758 208.52 74.6485 208.535 72.114L184.354 96.29Z" fill="black"/>
<path d="M123.62 156.995C124.913 157.954 126.17 158.978 127.376 160.089C131.772 164.134 134.213 164.149 138.573 160.133C155.691 144.359 181.615 144.228 198.879 159.82C199.86 160.706 200.819 161.687 201.959 162.297C205.847 164.381 209.174 162.384 209.174 158.027C209.189 147.409 209.276 136.792 209.073 126.174C209.044 124.555 208.063 122.383 206.791 121.447C197.658 114.707 188.503 107.997 179.348 101.287L123.62 156.995Z" fill="black"/>
<path d="M218.075 168.782C209.545 176.654 200.099 176.705 191.62 168.92C178.259 156.661 159.288 156.697 146.071 169.007C137.861 176.654 128.117 176.632 119.878 168.949C118.418 167.591 116.877 166.385 115.286 165.325L104.307 176.298C106.102 177.126 107.846 178.259 109.466 179.733C124.129 193.038 141.879 193.016 156.599 179.682C163.967 173.008 173.797 172.994 181.158 179.646C195.965 193.023 213.476 193.067 228.283 179.755C235.658 173.117 245.024 172.958 252.587 179.334C256.671 182.776 261.241 182.885 264.14 179.603C267.192 176.146 266.465 171.512 262.302 167.91C249.354 156.741 230.717 157.104 218.075 168.782Z" fill="black"/>
</g>
<defs>
<clipPath id="clip0_1_784">
<rect width="266" height="252" fill="white"/>
</clipPath>
</defs>
</svg>
