<svg width="20" height="31" viewBox="0 0 20 31" fill="none" xmlns="http://www.w3.org/2000/svg">
<g id="AMFyDl_2_">
<g id="Group">
<path id="Vector" d="M10.0033 0C14.8042 0.0371524 18.9243 3.4688 19.8329 8.16425C20.196 10.0417 19.8714 11.7934 19.1471 13.5198C17.9945 16.2672 16.4217 18.7744 14.7018 21.1874C13.4114 22.9974 12.0273 24.7417 10.6755 26.5077C10.2423 27.0736 9.80283 27.0779 9.35656 26.5287C6.5598 23.089 3.93373 19.531 1.84702 15.6059C1.16117 14.3161 0.561601 12.9866 0.215885 11.5618C-0.222932 9.75685 0.0327861 7.99583 0.738493 6.31468C2.15798 2.93195 4.71329 0.896612 8.31445 0.182047C8.86747 0.0724473 9.43973 0.0582055 10.0033 0ZM9.99834 25.1039C10.0914 24.9986 10.151 24.9411 10.2001 24.8754C11.5097 23.1045 12.851 21.3552 14.119 19.5546C15.5776 17.4839 16.8897 15.3217 17.8772 12.9786C18.4588 11.599 18.7635 10.1792 18.4985 8.67819C18.1186 6.5283 17.1144 4.73384 15.4063 3.35734C13.4282 1.7635 11.1497 1.14987 8.65706 1.55111C5.90809 1.99385 3.81518 3.47685 2.47514 5.91962C1.42248 7.83917 1.07986 9.87202 1.78681 12.0101C2.29328 13.5408 3.03375 14.9594 3.84311 16.3458C5.31473 18.866 7.00793 21.2363 8.7843 23.5491C9.17843 24.0612 9.58 24.5683 9.99834 25.1039Z" fill="black"/>
<path id="Vector_2" d="M10.0008 29.5895C12.1049 29.5895 14.1873 29.4007 16.1846 28.7028C16.8463 28.4719 17.4849 28.1363 18.0789 27.761C18.7536 27.3356 18.7579 26.8099 18.1528 26.2799C17.4626 25.6755 16.6098 25.3864 15.752 25.122C15.3405 24.995 14.916 24.9102 14.4976 24.8068C14.0632 24.699 13.8304 24.3715 13.9067 23.9727C13.9831 23.5739 14.3145 23.3517 14.7695 23.4427C16.2405 23.7368 17.6724 24.1467 18.8926 25.0675C19.4922 25.5201 19.954 26.0867 19.9974 26.8799C20.0427 27.7152 19.6201 28.3338 19.0037 28.8385C17.9995 29.6608 16.8003 30.0676 15.5664 30.3691C13.2432 30.9363 10.8828 31.0936 8.49756 30.9506C6.65043 30.8397 4.8331 30.5815 3.0828 29.953C2.28213 29.6657 1.51497 29.3097 0.884366 28.7307C-0.358225 27.5907 -0.257676 26.0966 1.10657 25.0724C2.23557 24.2247 3.55016 23.8278 4.89703 23.5077C5.02737 23.4767 5.15957 23.4569 5.29053 23.4297C5.7399 23.3356 6.121 23.5609 6.21162 23.9764C6.29044 24.3362 6.01238 24.6966 5.59094 24.8012C5.0224 24.9418 4.4489 25.0693 3.89091 25.2452C3.15355 25.478 2.43419 25.7666 1.84765 26.2941C1.26422 26.8186 1.28905 27.2917 1.92089 27.7685C2.72342 28.374 3.65195 28.7059 4.61214 28.953C6.40775 29.4143 7.93399 29.5871 10.0008 29.5895Z" fill="black"/>
<path id="Vector_3" d="M10.1174 13.3744C7.90223 13.3979 5.98248 11.5161 5.98682 9.27522C5.99179 6.84049 7.95188 5.07947 10.1956 5.09681C12.3612 5.11291 14.266 6.95009 14.2902 9.10556C14.3169 11.4988 12.5083 13.3496 10.1174 13.3744ZM12.8738 9.26531C12.8918 7.73092 11.6741 6.50179 10.123 6.48878C8.70848 6.47702 7.43672 7.72472 7.39513 9.11237C7.34858 10.6561 8.54711 11.9428 10.0926 11.9805C11.6108 12.0171 12.8558 10.7848 12.8738 9.26531Z" fill="black"/>
</g>
</g>
</svg>
