<svg width="31" height="31" viewBox="0 0 31 31" fill="none" xmlns="http://www.w3.org/2000/svg">
<g id="_x30_9c7JB.tif_1_">
<g id="Group">
<path id="Vector" d="M22.3247 30.9986C11.4166 30.8408 2.07905 22.784 0.332586 11.9743C0.00711588 9.96223 -0.251875 7.9155 0.42261 5.90755C1.55137 2.54804 3.90722 0.616255 7.37798 0.0235633C8.19235 -0.114916 9.03164 0.361453 9.3862 1.17294C10.4956 3.71265 11.5842 6.26068 12.6658 8.81285C12.9484 9.47894 12.8029 10.1118 12.411 10.7059C11.5897 11.9494 10.7906 13.2096 9.95265 14.4407C9.66873 14.8589 9.67012 15.1968 9.90557 15.6371C11.2033 18.0564 13.0689 19.8898 15.4884 21.1763C15.9053 21.3979 16.2349 21.3702 16.6255 21.1001C17.8138 20.2776 19.0367 19.5076 20.2264 18.6878C20.9563 18.1851 21.6779 18.1159 22.4936 18.4732C24.8855 19.5201 27.294 20.531 29.69 21.5682C30.755 22.0293 31.1567 22.8117 30.9476 23.9417C30.1554 28.2249 26.6901 31.061 22.3247 30.9986ZM22.1419 29.6346C22.6003 29.6346 23.0615 29.6637 23.5185 29.6305C26.4602 29.4103 29.287 26.721 29.6734 23.8143C29.7468 23.2646 29.6221 22.9253 29.0598 22.6913C26.7345 21.7247 24.4243 20.7207 22.1169 19.714C21.6502 19.5104 21.2707 19.527 20.8386 19.8289C19.6544 20.6556 18.437 21.4353 17.239 22.244C16.5507 22.7079 15.8319 22.7868 15.0937 22.4143C12.2808 20.9977 10.1424 18.8942 8.69371 16.0913C8.28514 15.302 8.3253 14.5694 8.8239 13.8286C9.61749 12.6487 10.3626 11.437 11.1687 10.2669C11.4955 9.79329 11.5232 9.38062 11.2961 8.8627C10.3224 6.64011 9.37373 4.40644 8.42087 2.17415C8.05108 1.31004 7.86134 1.18541 6.95694 1.40974C4.30332 2.07167 2.4793 3.67111 1.66494 6.30083C1.03339 8.33787 1.32008 10.4123 1.7328 12.4327C3.76872 22.3949 12.044 29.3577 22.1419 29.6346Z" fill="black"/>
<path id="Vector_2" d="M29.8176 11.1296C29.6846 11.2681 29.5226 11.57 29.2941 11.6365C29.1002 11.6932 28.7969 11.5174 28.6016 11.3678C28.4811 11.275 28.47 11.0382 28.4132 10.8637C27.0518 6.72044 24.3012 3.97024 20.1532 2.61868C20.0452 2.58267 19.8859 2.58544 19.8347 2.51205C19.6601 2.2614 19.523 1.98306 19.3721 1.71579C19.6477 1.57316 19.9704 1.25327 20.192 1.31143C24.8857 2.56052 28.4908 6.21776 29.7539 10.8485C29.765 10.8928 29.7747 10.9385 29.8176 11.1296Z" fill="black"/>
<path id="Vector_3" d="M18.5559 6.19824C18.9465 6.31872 19.1903 6.38242 19.4257 6.46966C22.0239 7.4224 23.7593 9.2254 24.6305 11.8385C24.733 12.1459 24.6762 12.6417 24.4837 12.8799C24.1804 13.2538 23.6527 12.963 23.4574 12.3509C23.0156 10.9619 22.2899 9.73501 21.1015 8.8889C20.3315 8.3419 19.4063 8.01925 18.5836 7.53734C18.3371 7.39332 18.0795 7.06097 18.0629 6.80063C18.049 6.59845 18.4022 6.37134 18.5559 6.19824Z" fill="black"/>
</g>
</g>
</svg>
