<svg width="210" height="242" viewBox="0 0 210 242" fill="none" xmlns="http://www.w3.org/2000/svg">
<g id="Group 30">
<path id="Vector" d="M209.497 37.7441C207.332 33.7927 204.701 31.4064 198.887 32.6036C178.79 36.7389 159.4 33.7233 139.605 23.3893C130.155 18.4532 121.314 12.1196 112.579 4.02897C111.745 3.25669 110.9 2.55386 110.082 1.87147C109.727 1.57318 109.372 1.27897 109.02 0.980684L107.876 0H102.161L101.029 0.935735C99.2516 2.40267 97.4784 3.91456 95.7625 5.37741C92.065 8.52786 88.2449 11.7845 84.335 14.6653C70.1784 25.1055 54.9228 31.4922 38.993 33.6497C29.8208 34.8919 20.5914 34.5732 11.5704 32.6935C6.13249 31.5658 3.13366 32.9346 0.502529 37.7481L0 38.6634V112.999L0.0245136 113.22C0.20428 114.867 0.367704 116.517 0.531128 118.168C0.886576 121.78 1.25837 125.515 1.80175 129.213C4.80875 149.575 13.172 168.453 26.6586 185.333C38.6294 200.313 54.1179 213.536 74.0066 225.753C80.0206 229.447 86.2757 232.876 92.3265 236.189C95.0761 237.697 97.9197 239.254 100.694 240.815C100.751 240.856 100.808 240.901 100.861 240.942C100.988 241.04 101.115 241.134 101.245 241.228L102.316 241.996H107.415L108.33 241.497C110.099 240.533 111.872 239.577 113.641 238.621C117.486 236.545 121.465 234.4 125.346 232.185C146.947 219.845 163.126 207.553 176.261 193.497C193.237 175.33 203.868 154.49 207.851 131.563C208.431 128.228 208.762 124.87 209.085 121.621C209.228 120.195 209.371 118.724 209.534 117.294C209.64 116.366 209.739 115.439 209.841 114.507L210.004 112.999V38.6634L209.497 37.7441Z" fill="black"/>
<g id="Group">
<g id="Group_2">
<path id="Vector_2" d="M75.2323 109.779H34.9197V101.783L53.9423 81.503C56.553 78.6468 58.4855 76.1583 59.7397 74.0294C60.9899 71.9005 61.6191 69.8819 61.6191 67.9696C61.6191 65.3585 60.9572 63.3031 59.6417 61.8076C58.322 60.3121 56.4386 59.5643 53.9872 59.5643C51.3479 59.5643 49.2683 60.4714 47.7485 62.2898C46.2287 64.1081 45.4646 66.4985 45.4646 69.461H33.7512C33.7512 65.8815 34.6051 62.6085 36.317 59.646C38.0248 56.6835 40.4434 54.3626 43.5648 52.6791C46.6862 50.9956 50.2285 50.1538 54.1874 50.1538C60.2464 50.1538 64.953 51.6085 68.3032 54.5179C71.6574 57.4272 73.3325 61.5338 73.3325 66.8377C73.3325 69.7471 72.5767 72.7095 71.0691 75.7251C69.5615 78.7407 66.9753 82.2548 63.3146 86.2675L49.9466 100.365H75.2323V109.779Z" fill="white"/>
<path id="Vector_3" d="M116.914 87.6404H123.577V97.0509H116.914V109.775H105.241V97.0509H81.1279L80.605 89.6999L105.123 50.9629H116.918V87.6404H116.914ZM92.2326 87.6404H105.237V66.8786L104.469 68.2107L92.2326 87.6404Z" fill="white"/>
</g>
<g id="Group_3">
<path id="Vector_4" d="M175.665 137.529L152.924 189.828H140.606L163.387 140.426H134.147V131.015H175.669V137.529H175.665Z" fill="white"/>
</g>
<path id="Vector_5" d="M164.976 77.4979L58.762 183.727L63.442 188.408L169.656 82.1786L164.976 77.4979Z" fill="white"/>
</g>
</g>
</svg>
