<?xml version="1.0" standalone="no"?>
<!DOCTYPE svg PUBLIC "-//W3C//DTD SVG 20010904//EN"
 "http://www.w3.org/TR/2001/REC-SVG-20010904/DTD/svg10.dtd">
<svg version="1.0" xmlns="http://www.w3.org/2000/svg"
 width="1040.000000pt" height="1040.000000pt" viewBox="0 0 1040.000000 1040.000000"
 preserveAspectRatio="xMidYMid meet">
<metadata>
Created by potrace 1.14, written by Peter Selinger 2001-2017
</metadata>
<g transform="translate(0.000000,1040.000000) scale(0.100000,-0.100000)"
fill="#000000" stroke="none">
<path d="M4938 10395 c-1 -2 -53 -6 -114 -9 -60 -4 -121 -8 -135 -11 -13 -2
-51 -6 -84 -10 -33 -4 -76 -9 -95 -11 -19 -3 -48 -7 -65 -9 -16 -2 -48 -6 -70
-10 -22 -3 -53 -8 -70 -11 -16 -3 -104 -21 -195 -40 -91 -20 -172 -37 -180
-39 -8 -2 -57 -15 -109 -30 -51 -15 -101 -29 -110 -30 -9 -2 -16 -4 -16 -4 0
-1 -81 -28 -180 -62 -99 -33 -193 -67 -210 -74 -16 -8 -70 -30 -120 -50 -145
-59 -478 -227 -630 -317 -396 -237 -704 -476 -1025 -798 -165 -165 -206 -209
-310 -335 -41 -49 -77 -92 -80 -95 -3 -3 -46 -59 -96 -125 -412 -551 -703
-1152 -877 -1815 -32 -119 -73 -307 -82 -365 -1 -11 -10 -65 -19 -120 -23
-137 -25 -151 -32 -225 -3 -36 -7 -76 -9 -89 -26 -165 -26 -894 0 -1026 2 -11
7 -47 10 -80 3 -33 7 -71 10 -85 2 -14 6 -43 9 -65 15 -128 19 -151 23 -157 2
-4 10 -42 18 -85 22 -118 35 -180 69 -313 48 -189 121 -411 203 -620 36 -91
69 -169 74 -174 5 -6 9 -18 9 -28 0 -10 5 -18 10 -18 6 0 10 -6 10 -14 0 -14
137 -291 191 -386 146 -257 306 -493 493 -725 44 -55 85 -105 91 -111 5 -6 39
-45 75 -85 96 -109 299 -314 393 -396 45 -39 91 -80 102 -90 17 -15 99 -83
165 -136 162 -131 451 -326 635 -430 141 -79 204 -111 340 -177 393 -191 825
-332 1300 -425 40 -8 277 -42 340 -50 28 -3 66 -7 85 -10 170 -21 700 -28 900
-11 58 5 119 10 135 11 30 2 109 12 176 21 20 2 54 7 75 9 22 3 64 10 94 15
30 6 69 13 85 16 929 168 1835 616 2540 1254 132 120 376 371 470 484 39 47
57 69 94 111 120 141 451 628 451 665 0 6 3 10 8 10 4 0 12 10 18 23 6 12 51
101 101 197 156 304 250 535 348 855 60 194 130 493 151 635 3 19 9 58 14 85
8 49 11 71 31 240 25 218 34 736 16 935 -14 158 -20 213 -31 305 -6 45 -10 70
-21 140 -2 11 -6 36 -9 55 -3 19 -13 71 -21 115 -9 44 -19 91 -21 105 -3 14
-11 50 -19 80 -8 30 -16 69 -19 86 -18 102 -143 482 -231 699 -55 135 -211
462 -276 575 -195 343 -422 659 -674 939 -80 89 -323 331 -404 401 -41 36 -79
70 -85 75 -128 117 -593 455 -625 455 -5 0 -11 4 -13 8 -9 22 -459 263 -618
331 -30 13 -77 34 -105 46 -27 12 -95 39 -150 59 -55 21 -109 42 -120 46 -51
22 -343 111 -475 145 -33 8 -237 53 -270 59 -19 3 -46 8 -60 11 -14 3 -54 10
-90 16 -157 25 -231 34 -340 44 -36 3 -87 8 -115 11 -56 6 -651 14 -657 9z"/>
</g>
</svg>
